<?xml version="1.0" encoding="UTF-8"?>
<!DOCTYPE svg PUBLIC "-//W3C//DTD SVG 1.1//EN" "http://www.w3.org/Graphics/SVG/1.1/DTD/svg11.dtd">
<!-- Creator: CorelDRAW -->
<svg xmlns="http://www.w3.org/2000/svg" xml:space="preserve" width="2048px" height="2048px" style="shape-rendering:geometricPrecision; text-rendering:geometricPrecision; image-rendering:optimizeQuality; fill-rule:evenodd; clip-rule:evenodd"
viewBox="0 0 2048 2048"
 xmlns:xlink="http://www.w3.org/1999/xlink">
 <defs>
  <style type="text/css">
   <![CDATA[
    .fil1 {fill:none}
    .fil0 {fill:#424242;fill-rule:nonzero}
   ]]>
  </style>
 </defs>
 <g id="Layer_x0020_1">
  <metadata id="CorelCorpID_0Corel-Layer"/>
  <g id="_366248056">
   <path id="_366250240" class="fil0" d="M952.808 419.013c-62.8052,7.6819 -122.062,32.6008 -166.482,79.089 -0.61063,0.615355 -1.20591,1.24488 -1.78583,1.88858 -0.291733,0.311811 -0.583465,0.624804 -0.872835,0.938977 -12.3803,13.3795 -16.7173,31.3595 -13.2461,47.9575 -0.154725,7.29922 -0.389764,14.5937 -0.63189,21.8965 -0.477166,14.2854 -1.03701,28.6418 -0.111024,42.9177 -56.8182,-6.8126 -203.617,0.703938 -182.202,88.9123l-6.60355 5.0693c-4.07008,3.12402 -7.94292,6.49725 -11.5984,10.0961 -13.9347,13.7221 -24.3402,30.3839 -30.8799,48.5752 -9.65079,-7.51064 -17.9291,-17.2654 -23.8642,-28.7445 -7.40552,-14.3197 -11.1685,-31.3063 -9.38032,-49.9111 4.01575,-41.7721 36.7205,-91.8827 122.681,-134.835 15.4843,-7.73741 31.05,-13.9051 46.2662,-19.9335l0.0307087 0.0779528c42.5268,-16.8508 81.8209,-32.4307 88.2402,-77.4816 7.07363,-49.6571 35.7768,-95.9469 72.0863,-128.642 22.2461,-20.0339 47.5678,-35.2063 72.7737,-43.1918 27.1583,-8.60316 54.489,-9.03426 78.6048,1.28976 1.53898,0.659056 3.06024,1.35945 4.56378,2.10118 -19.5957,27.7004 -31.5862,61.78 -36.0331,94.8591 -1.42323,10.5886 -1.29921,23.3516 -1.5,34.0949l-0.0555119 2.9752z"/>
   <path id="_366249352" class="fil0" d="M983.889 416.619c0.263386,-14.0788 0.667323,-26.354 1.22953,-30.541 4.34882,-32.3185 17.3599,-67.4918 39.9579,-92.8595 19.8638,-22.298 46.6536,-37.2189 80.9434,-37.2189 93.1985,0 121.962,51.6768 155.157,111.315 25.311,45.4748 53.7319,96.5387 124.825,124.125 46.6914,18.1181 109.669,43.7918 158.594,81.6745 52.9477,40.9973 89.1615,95.3422 73.9512,168.233 -2.33504,11.2016 -8.23229,21.5114 -16.6854,29.8736 -8.04449,7.95827 -18.5362,14.2665 -30.4701,17.8736 -2.08937,-22.7977 -9.63662,-44.7945 -21.4158,-64.4315 -19.6016,-32.6717 -49.8178,-57.2788 -84.6792,-72.176 1.78819,-4.48347 3.44055,-8.97993 4.9441,-13.4882 1.92638,-5.77323 1.50354,-2.85591 2.55236,-10.6524 3.98268,-29.6492 -16.8543,-56.9516 -46.4918,-60.9733 -53.6788,-7.28623 -112.53,2.92087 -163.736,19.2614 -8.25237,2.63386 -16.5154,5.48977 -24.7595,8.55827 -1.28622,-12.7406 -3.41929,-25.4362 -5.47441,-38.0433 -1.89685,-11.6327 -3.77599,-23.25 -5.36457,-34.9288 -0.466536,-3.42756 -1.2437,-6.73701 -2.29961,-9.90355 -2.03386,-17.3622 -12.5268,-33.0992 -28.3689,-41.8843 -63.0875,-34.989 -139.657,-56.1237 -212.408,-53.8134z"/>
   <g>
    <path id="_366249304" class="fil0" d="M1452.21 680.643c32.2642,13.5673 56.3315,35.2713 71.1579,59.9835 10.4669,17.4484 16.3831,36.4536 17.4213,55.3311 1.06654,19.4351 -2.98465,38.6847 -12.4902,56.0126 -17.1933,31.337 -51.7241,55.7989 -105.301,62.2595 -58.0666,7.00276 -75.7264,38.0445 -94.3914,70.8556 -24.3862,42.867 -50.1048,88.0737 -136.433,106.579 -19.7835,4.24016 -39.2953,4.86496 -57.7571,2.22874 -19.0595,-2.72244 -36.9874,-8.94095 -52.963,-18.2658 9.48072,-14.8748 16.3914,-31.4634 20.2973,-49.4634 3.54095,-16.3134 -0.239764,-47.8382 -2.98583,-64.8745l-0.323622 -2.00906c70.8284,-20.1366 146.765,-66.9957 195.646,-103.899 57.6308,-43.5107 122.036,-106.479 158.123,-174.738z"/>
    <path id="_366248800" class="fil0" d="M1068.13 966.229c3.49252,21.6709 4.77166,46.5225 3.29646,53.354 -7.61221,34.9087 -28.6642,60.9579 -55.1079,78.1335 -29.9091,19.428 -67.0099,27.2965 -98.8524,23.5193 -37.7988,-4.48229 -60.8752,-31.0477 -88.8875,-63.2953 -22.9276,-26.3941 -49.8307,-57.3638 -91.0241,-78.8304 -14.4449,-7.52599 -27.8091,-13.8732 -40.8437,-20.061 -68.4827,-32.5181 -129.142,-61.3217 -135.089,-136.761 -0.69567,-8.82166 -0.305906,-17.5843 1.04291,-26.1307 3.52087,-22.2957 13.728,-41.8347 28.3855,-56.2666 2.75788,-2.71536 5.6693,-5.25 8.72009,-7.59213 33.7654,67.4233 95.1816,120.591 159.425,157.676 79.9524,46.154 175.885,74.6327 268.2,79.0654 12.9827,0.622441 26.654,-0.425197 40.7339,-2.81103z"/>
    <path id="_366249064" class="fil0" d="M1050.54 759.761c14.2736,-18.2658 31.4705,-35.5713 50.7532,-51.6012 48.1063,-39.9886 109.712,-72.4997 170.705,-91.9631 53.0091,-16.9169 106.034,-24.1205 150.129,-18.0756 12.7016,1.70669 21.6154,13.3902 19.9087,26.0918 -0.231496,1.73032 -0.650788,3.39095 -1.23189,4.96418 -20.4862,68.504 -88.0997,143.063 -165.418,201.437 -85.4292,64.4977 -184.591,110.401 -246.506,107.43 -88.2178,-4.23662 -179.412,-31.7859 -254.175,-74.9434 -72.8646,-42.0626 -130.661,-99.2824 -156.158,-164.89 -3.53859,-9.15237 -0.881103,-19.174 5.92441,-25.4398l-0.0153543 -0.0177165c40.6311,-37.2744 117.634,-37.6264 198.879,-17.5831 81.8599,20.1945 170.036,61.1504 227.205,104.591z"/>
    <path id="_366248896" class="fil0" d="M801.239 618.604c-1.52953,-13.9606 -1.06417,-27.9638 -0.437008,-46.787 0.34252,-10.298 0.73819,-22.1729 0.826772,-35.6386 0.0496063,-12.8032 10.4705,-23.1414 23.2736,-23.0929 12.8032,0.0496063 23.1414,10.4717 23.0929,23.2736 -0.022441,3.28347 -0.0578741,6.40749 -0.103937,9.39095 9.08623,-4.23544 310.798,48.3685 302.323,-13.1658 -1.70669,-12.7016 7.20827,-24.3862 19.9099,-26.0918 12.7016,-1.70669 24.3851,7.20709 26.0918,19.9087 1.85197,13.4528 3.77953,25.2685 5.48622,35.7414 2.85827,17.5288 5.15552,31.624 5.96457,45.2622 -45.3933,19.9075 -89.1296,46.0678 -126.21,76.8922 -12.639,10.5059 -24.7512,21.7666 -36.0177,33.7961 -63.1205,-42.0366 -143.613,-75.5209 -214.671,-93.0509 -9.35316,-2.30788 -19.2567,-4.49882 -29.5288,-6.43819z"/>
    <path id="_366248872" class="fil0" d="M902.78 510.988c19.9228,1.80945 41.4721,4.54252 63.5977,7.34882 66.6733,8.45552 139.559,17.6977 168.768,6.91654 -45.2079,-21.8622 -101.081,-33.9508 -154.987,-30.9402 -26.9764,1.50827 -53.3363,6.83741 -77.3788,16.6748zm57.7796 53.3504c-57.6,-7.3063 -110.785,-14.0528 -126.48,-5.9693l-0.0236221 -0.0448819c-8.41418,4.33583 -18.991,3.20906 -26.341,-3.59055 -9.38859,-8.68583 -9.95788,-23.341 -1.27205,-32.7284 44.4496,-48.0272 106.708,-70.4552 171.17,-74.0575 72.2327,-4.03347 147.873,15.789 203.634,49.6205 9.22324,4.65473 14.5181,15.0969 12.2362,25.6654 -15.0933,68.7367 -129.993,54.1607 -232.924,41.1048z"/>
   </g>
   <path id="_366248728" class="fil0" d="M1014.14 1191.1c2.30906,-12.6024 14.3976,-20.9469 27,-18.6378 12.6024,2.30906 20.9457,14.3988 18.6366,27.0012 -6.313,34.174 -14.7106,68.0693 -22.937,101.278 -8.87481,35.8158 -17.5488,70.826 -22.7823,102.698 -9.67087,58.8851 -21.0508,121.083 -35.7603,183.685 -14.8453,63.1784 -33.1701,127.309 -56.693,189.833 -4.51772,11.9988 -17.9102,18.0638 -29.9103,13.5461 -12,-4.5189 -18.065,-17.9114 -13.5461,-29.9114 22.6465,-60.1985 40.4067,-122.433 54.8752,-184.015 14.6055,-62.1579 25.7776,-123.131 35.2134,-180.592 5.57363,-33.939 14.4402,-69.7264 23.5099,-106.336 8.14843,-32.8855 16.4634,-66.4512 22.3937,-98.5501z"/>
   <path id="_366248560" class="fil0" d="M983.465 1561.21c-6.1252,11.2453 -20.2099,15.398 -31.4551,9.27284 -11.2465,-6.12638 -15.398,-20.2099 -9.27284,-31.4563 13.7669,-25.3618 36.0189,-49.9052 62.1898,-71.1638 27.463,-22.3075 59.4638,-41.2713 90.5091,-53.8713 57.7784,-23.452 147.905,-28.3453 228.212,-12.4075 71.4508,14.1791 136.463,45.0827 167.557,94.506 6.82796,10.8437 3.57166,25.1729 -7.27323,32.0008 -10.8437,6.82796 -25.1729,3.57166 -32.0008,-7.27323 -23.5382,-37.4138 -77.1166,-61.6749 -137.191,-73.5969 -72.1418,-14.3162 -151.859,-10.4268 -201.848,9.86339 -27.0827,10.9913 -54.9071,27.4607 -78.6922,46.7788 -21.7772,17.6906 -39.9756,37.5272 -50.7343,57.3473z"/>
   <path id="_366248368" class="fil0" d="M1163.32 1424.26c5.89016,-8.60434 20.0445,-7.43741 15.4914,-11.7071 -51.2646,-48.0744 -46.2237,-76.8839 -11.2146,-94.2816 21.5055,-10.6878 59.9233,-11.1272 100.264,-8.73072 43.4776,2.58425 90.3225,16.8815 130.76,41.4815 36.9992,22.5083 68.9008,53.8075 88.4646,92.9221 10.4492,20.8937 18.202,38.8205 23.5973,57.3827 5.3752,18.489 8.3256,37.1965 9.1441,59.4237 0.949607,8.89961 -3.31063,17.9351 -11.576,22.6642 -11.1461,6.3756 -25.3524,2.50984 -31.7292,-8.63623 -10.526,-18.411 -19.9866,-24.8374 -39.0851,-37.813l-0.056693 -0.0389764c-37.7162,-25.6252 -100.6,-12.1536 -154.733,-0.557481 -55.6453,11.9209 -103.833,22.2437 -130.384,-7.5378 -34.2366,-38.4024 -9.60591,-74.3847 11.0575,-104.571z"/>
   <path id="_366248704" class="fil0" d="M1003.18 1399.66c6.1252,11.2465 1.97362,25.3311 -9.27284,31.4563 -11.2453,6.1252 -25.3299,1.97362 -31.4551,-9.27284 -10.7599,-19.8201 -28.9583,-39.6579 -50.7367,-57.3473 -23.7851,-19.3205 -51.6083,-35.7874 -78.691,-46.7788 -49.989,-20.2902 -129.703,-24.1795 -201.848,-9.86221 -60.0745,11.9221 -113.653,36.1831 -137.191,73.5957 -6.82678,10.8437 -21.1571,14.1 -32.0008,7.27323 -10.8437,-6.82796 -14.1,-21.1571 -7.27323,-32.002 31.0937,-49.4221 96.1064,-80.3257 167.557,-94.5048 80.3079,-15.9378 170.433,-11.0433 228.212,12.4075 31.0441,12.5988 63.0461,31.5626 90.5079,53.8701 26.1721,21.2575 48.4241,45.802 62.1922,71.165z"/>
   <path id="_366248512" class="fil0" d="M767.105 1273.18c-4.55433,4.26969 9.60119,3.10276 15.4914,11.7095 20.6634,30.1855 45.2929,66.1666 11.0575,104.569 -26.5512,29.7827 -74.7402,19.4599 -130.386,7.53898 -54.1016,-11.5902 -116.946,-25.05 -154.669,0.514961l0.0271654 0.0413386 -0.0543308 0.0366142c-0.435827,0.297638 -0.879922,0.578741 -1.32874,0.842127 -18.274,12.4217 -27.5516,18.9673 -37.8496,36.9756 -6.37678,11.1449 -20.5831,15.0118 -31.728,8.63505 -8.26654,-4.72914 -12.5256,-13.7646 -11.5772,-22.6642 0.818505,-22.2272 3.77008,-40.9359 9.1441,-59.4237 5.39646,-18.5622 13.1492,-36.4902 23.5984,-57.3827 19.5638,-39.1158 51.463,-70.4127 88.4646,-92.9233 40.4386,-24.6 87.2812,-38.8961 130.759,-41.4792 40.3406,-2.39764 78.7619,-1.95709 100.264,8.72953 35.0103,17.3988 40.0524,46.2071 -11.2134,94.2804z"/>
   <path id="_366248200" class="fil0" d="M1119.57 1028.03c12.8032,-1.10315 24.6851,28.9878 25.7894,41.791 3.87638,44.4225 -3.60236,77.4733 -19.5992,101.177 -18.7158,27.7288 -47.6882,41.5642 -83.106,44.9729 -37.95,3.65315 -60.913,-10.4528 -74.6823,-34.0843 -11.7496,-20.1626 -15.4665,-66.9166 -15.4665,-93.5682l167.065 -60.2882z"/>
  </g>
 </g>
 <rect class="fil1" width="2048" height="2048"/>
</svg>
